<svg width="89" height="75" viewBox="0 0 89 75" fill="none" xmlns="http://www.w3.org/2000/svg">
<g filter="url(#filter0_d)">
<rect x="12.0493" y="20.6274" width="25.1553" height="25.1553" fill="white"/>
<rect x="41.2297" y="7.54663" width="38.236" height="38.236" fill="white"/>
<rect x="4" width="33.7081" height="17.1056" fill="white"/>
<path d="M24.6668 52.5429V66H20.1729V64.5599C19.6763 65.1062 19.0804 65.52 18.3852 65.8014C17.69 66.0828 16.9534 66.2235 16.1755 66.2235C14.4375 66.2235 13.0471 65.7103 12.0043 64.6841C10.978 63.6578 10.4649 62.1185 10.4649 60.066V52.5429H15.1823V59.2963C15.1823 60.306 15.3727 61.0426 15.7534 61.506C16.1341 61.9695 16.6886 62.2012 17.4169 62.2012C18.1618 62.2012 18.7659 61.9447 19.2294 61.4315C19.7094 60.9019 19.9494 60.0991 19.9494 59.0232V52.5429H24.6668ZM50.8705 52.5429L46.0786 66H41.5101L38.9776 58.6756L36.3458 66H31.7773L26.9854 52.5429H31.4546L34.2105 60.6867L37.0658 52.5429H41.088L43.8688 60.7612L46.7241 52.5429H50.8705ZM66.5723 59.2963C66.5723 59.3294 66.5474 59.7184 66.4978 60.4632H56.7153C56.9139 61.1584 57.2946 61.6964 57.8574 62.0771C58.4368 62.4412 59.1568 62.6233 60.0175 62.6233C60.6631 62.6233 61.2176 62.5323 61.681 62.3502C62.1611 62.1681 62.6411 61.8702 63.1211 61.4564L65.6039 64.0385C64.2963 65.4952 62.3845 66.2235 59.8685 66.2235C58.2961 66.2235 56.9139 65.9255 55.7222 65.3296C54.5304 64.7337 53.6035 63.9061 52.9414 62.8468C52.2958 61.7874 51.9731 60.5874 51.9731 59.2466C51.9731 57.9224 52.2875 56.7389 52.9165 55.6961C53.5621 54.6368 54.4476 53.8092 55.5732 53.2133C56.6988 52.6174 57.965 52.3194 59.372 52.3194C60.7127 52.3194 61.9293 52.6008 63.0218 53.1636C64.1142 53.7098 64.975 54.5126 65.6039 55.572C66.2495 56.6148 66.5723 57.8562 66.5723 59.2963ZM59.3968 55.6713C58.6685 55.6713 58.0561 55.8782 57.5595 56.292C57.0795 56.7058 56.7732 57.2686 56.6408 57.9804H62.1528C62.0204 57.2686 61.7059 56.7058 61.2093 56.292C60.7293 55.8782 60.1251 55.6713 59.3968 55.6713ZM78.0828 52.3194C79.3077 52.3194 80.4167 52.6008 81.4099 53.1636C82.4196 53.7264 83.2141 54.5375 83.7934 55.5968C84.3893 56.6396 84.6872 57.8562 84.6872 59.2466C84.6872 60.637 84.3893 61.8619 83.7934 62.9213C83.2141 63.9806 82.4196 64.8 81.4099 65.3793C80.4167 65.9421 79.3077 66.2235 78.0828 66.2235C76.3117 66.2235 74.9875 65.7021 74.1103 64.6593V66H69.6163V47.5772H74.3337V53.7098C75.2441 52.7829 76.4938 52.3194 78.0828 52.3194ZM77.0897 62.4743C77.9173 62.4743 78.596 62.1929 79.1256 61.6302C79.6553 61.0508 79.9202 60.2563 79.9202 59.2466C79.9202 58.2535 79.6553 57.4755 79.1256 56.9127C78.596 56.35 77.9173 56.0686 77.0897 56.0686C76.2621 56.0686 75.5834 56.35 75.0538 56.9127C74.5241 57.4755 74.2592 58.2535 74.2592 59.2466C74.2592 60.2563 74.5241 61.0508 75.0538 61.6302C75.5834 62.1929 76.2621 62.4743 77.0897 62.4743Z" fill="white"/>
</g>
<defs>
<filter id="filter0_d" x="0" y="0" width="88.6872" height="74.2234" filterUnits="userSpaceOnUse" color-interpolation-filters="sRGB">
<feFlood flood-opacity="0" result="BackgroundImageFix"/>
<feColorMatrix in="SourceAlpha" type="matrix" values="0 0 0 0 0 0 0 0 0 0 0 0 0 0 0 0 0 0 127 0" result="hardAlpha"/>
<feOffset dy="4"/>
<feGaussianBlur stdDeviation="2"/>
<feComposite in2="hardAlpha" operator="out"/>
<feColorMatrix type="matrix" values="0 0 0 0 0 0 0 0 0 0 0 0 0 0 0 0 0 0 0.25 0"/>
<feBlend mode="normal" in2="BackgroundImageFix" result="effect1_dropShadow"/>
<feBlend mode="normal" in="SourceGraphic" in2="effect1_dropShadow" result="shape"/>
</filter>
</defs>
</svg>
