<svg width="82" height="69" viewBox="0 0 82 69" fill="none" xmlns="http://www.w3.org/2000/svg">
<rect x="8.04932" y="20.6273" width="25.1553" height="25.1553" fill="#1348C2"/>
<rect x="37.2297" y="7.5466" width="38.236" height="38.236" fill="#FFC700"/>
<rect width="33.7081" height="17.1056" fill="#FF016C"/>
<path d="M20.6668 52.5429V66H16.1729V64.5599C15.6763 65.1062 15.0804 65.52 14.3852 65.8014C13.69 66.0828 12.9534 66.2235 12.1755 66.2235C10.4375 66.2235 9.04706 65.7103 8.00426 64.6841C6.97801 63.6578 6.46489 62.1185 6.46489 60.066V52.5429H11.1823V59.2963C11.1823 60.306 11.3727 61.0426 11.7534 61.506C12.1341 61.9695 12.6886 62.2012 13.4169 62.2012C14.1618 62.2012 14.7659 61.9447 15.2294 61.4315C15.7094 60.9019 15.9494 60.0991 15.9494 59.0232V52.5429H20.6668ZM46.8705 52.5429L42.0786 66H37.5101L34.9776 58.6756L32.3458 66H27.7773L22.9854 52.5429H27.4546L30.2105 60.6867L33.0658 52.5429H37.088L39.8688 60.7612L42.7241 52.5429H46.8705ZM62.5723 59.2963C62.5723 59.3294 62.5474 59.7184 62.4978 60.4632H52.7153C52.9139 61.1584 53.2946 61.6964 53.8574 62.0771C54.4368 62.4412 55.1568 62.6233 56.0175 62.6233C56.6631 62.6233 57.2176 62.5323 57.681 62.3502C58.1611 62.1681 58.6411 61.8702 59.1211 61.4564L61.6039 64.0385C60.2963 65.4952 58.3845 66.2235 55.8685 66.2235C54.2961 66.2235 52.9139 65.9255 51.7222 65.3296C50.5304 64.7337 49.6035 63.9061 48.9414 62.8468C48.2958 61.7874 47.9731 60.5874 47.9731 59.2466C47.9731 57.9224 48.2875 56.7389 48.9165 55.6961C49.5621 54.6368 50.4476 53.8092 51.5732 53.2133C52.6988 52.6174 53.965 52.3194 55.372 52.3194C56.7127 52.3194 57.9293 52.6008 59.0218 53.1636C60.1142 53.7098 60.975 54.5126 61.6039 55.572C62.2495 56.6148 62.5723 57.8562 62.5723 59.2963ZM55.3968 55.6713C54.6685 55.6713 54.0561 55.8782 53.5595 56.292C53.0795 56.7058 52.7732 57.2686 52.6408 57.9804H58.1528C58.0204 57.2686 57.7059 56.7058 57.2093 56.292C56.7293 55.8782 56.1251 55.6713 55.3968 55.6713ZM74.0828 52.3194C75.3077 52.3194 76.4167 52.6008 77.4099 53.1636C78.4196 53.7264 79.2141 54.5375 79.7934 55.5968C80.3893 56.6396 80.6872 57.8562 80.6872 59.2466C80.6872 60.637 80.3893 61.8619 79.7934 62.9213C79.2141 63.9806 78.4196 64.8 77.4099 65.3793C76.4167 65.9421 75.3077 66.2235 74.0828 66.2235C72.3117 66.2235 70.9875 65.7021 70.1103 64.6593V66H65.6163V47.5772H70.3337V53.7098C71.2441 52.7829 72.4938 52.3194 74.0828 52.3194ZM73.0897 62.4743C73.9173 62.4743 74.596 62.1929 75.1256 61.6302C75.6553 61.0508 75.9202 60.2563 75.9202 59.2466C75.9202 58.2535 75.6553 57.4755 75.1256 56.9127C74.596 56.35 73.9173 56.0686 73.0897 56.0686C72.2621 56.0686 71.5834 56.35 71.0538 56.9127C70.5241 57.4755 70.2592 58.2535 70.2592 59.2466C70.2592 60.2563 70.5241 61.0508 71.0538 61.6302C71.5834 62.1929 72.2621 62.4743 73.0897 62.4743Z" fill="#1348C2"/>
</svg>
